<svg id="Layer_1" data-name="Layer 1" xmlns="http://www.w3.org/2000/svg" viewBox="0 0 512 512"><defs><style>.cls-1{fill:#25b7d3;}.cls-2{fill:#91c5ce;}.cls-3{fill:#b9e4ea;}.cls-4{fill:#f2f7f7;}</style></defs><title>rain</title><path class="cls-1" d="M504.08,256C504.08,119,393,7.91,256,7.91S7.92,119,7.92,256,119,504.06,256,504.06,504.08,393,504.08,256Z"/><path class="cls-2" d="M159.37,86.93a106.84,106.84,0,0,1-26.14-9.79h0A106.84,106.84,0,0,1,143,103.29c7.06,21,3.32,39.54,21,57.19,15.19,15.19,38.6,16.4,53.79,1.21h0c15.19-15.19,14-38.6-1.21-53.79C198.91,90.25,180.37,94,159.37,86.93Z"/><path class="cls-3" d="M159.37,86.93a106.84,106.84,0,0,1-26.14-9.79s69.35,99.74,84.54,84.55h0c15.19-15.19,14-38.6-1.21-53.79C198.91,90.25,180.37,94,159.37,86.93Z"/><path class="cls-4" d="M214.78,155.71h0c11.89-11.89,10.94-30.21-.95-42.1C200,99.79,202.89,167.59,214.78,155.71Z"/><path class="cls-2" d="M293.72,86.93a106.84,106.84,0,0,1-26.14-9.79h0a106.84,106.84,0,0,1,9.79,26.14c7.06,21,3.32,39.54,21,57.19,15.19,15.19,38.6,16.4,53.79,1.21h0c15.19-15.19,14-38.6-1.21-53.79C333.26,90.25,314.72,94,293.72,86.93Z"/><path class="cls-3" d="M293.72,86.93a106.84,106.84,0,0,1-26.14-9.79s69.35,99.74,84.54,84.55h0c15.19-15.19,14-38.6-1.21-53.79C333.26,90.25,314.72,94,293.72,86.93Z"/><path class="cls-4" d="M349.13,155.71h0c11.89-11.89,10.94-30.21-.95-42.1C334.37,99.79,337.24,167.59,349.13,155.71Z"/><path class="cls-2" d="M159.37,359.93a106.84,106.84,0,0,1-26.14-9.79h0A106.84,106.84,0,0,1,143,376.29c7.06,21,3.32,39.54,21,57.19,15.19,15.19,38.6,16.4,53.79,1.21h0c15.19-15.19,14-38.6-1.21-53.79C198.91,363.25,180.37,367,159.37,359.93Z"/><path class="cls-3" d="M159.37,359.93a106.84,106.84,0,0,1-26.14-9.79s69.35,99.74,84.54,84.55h0c15.19-15.19,14-38.6-1.21-53.79C198.91,363.25,180.37,367,159.37,359.93Z"/><path class="cls-4" d="M214.78,428.71h0c11.89-11.89,10.94-30.21-.95-42.1C200,372.79,202.89,440.59,214.78,428.71Z"/><path class="cls-2" d="M293.72,359.93a106.84,106.84,0,0,1-26.14-9.79h0a106.84,106.84,0,0,1,9.79,26.14c7.06,21,3.32,39.54,21,57.19,15.19,15.19,38.6,16.4,53.79,1.21h0c15.19-15.19,14-38.6-1.21-53.79C333.26,363.25,314.72,367,293.72,359.93Z"/><path class="cls-3" d="M293.72,359.93a106.84,106.84,0,0,1-26.14-9.79s69.35,99.74,84.54,84.55h0c15.19-15.19,14-38.6-1.21-53.79C333.26,363.25,314.72,367,293.72,359.93Z"/><path class="cls-4" d="M349.13,428.71h0c11.89-11.89,10.94-30.21-.95-42.1C334.37,372.79,337.24,440.59,349.13,428.71Z"/><path class="cls-2" d="M108.55,221.28a106.86,106.86,0,0,1-26.14-9.79h0a106.84,106.84,0,0,1,9.79,26.14c7.06,21,3.32,39.54,21,57.19C128.35,310,151.77,311.24,167,296h0c15.19-15.19,14-38.6-1.21-53.79C148.09,224.6,129.55,228.34,108.55,221.28Z"/><path class="cls-3" d="M108.55,221.28a106.86,106.86,0,0,1-26.14-9.79S151.77,311.24,167,296h0c15.19-15.19,14-38.6-1.21-53.79C148.09,224.6,129.55,228.34,108.55,221.28Z"/><path class="cls-4" d="M164,290.06h0c11.89-11.89,10.94-30.21-.95-42.1C149.21,234.14,152.08,301.94,164,290.06Z"/><path class="cls-2" d="M242.9,221.28a106.86,106.86,0,0,1-26.14-9.79h0a106.84,106.84,0,0,1,9.79,26.14c7.06,21,3.32,39.54,21,57.19,15.19,15.19,38.6,16.4,53.79,1.21h0c15.19-15.19,14-38.6-1.21-53.79C282.44,224.6,263.9,228.34,242.9,221.28Z"/><path class="cls-3" d="M242.9,221.28a106.86,106.86,0,0,1-26.14-9.79S286.11,311.24,301.3,296h0c15.19-15.19,14-38.6-1.21-53.79C282.44,224.6,263.9,228.34,242.9,221.28Z"/><path class="cls-4" d="M298.32,290.06h0c11.89-11.89,10.94-30.21-.95-42.1C283.56,234.14,286.43,301.94,298.32,290.06Z"/><path class="cls-2" d="M376.38,221.28a106.86,106.86,0,0,1-26.14-9.79h0A106.84,106.84,0,0,1,360,237.64c7.06,21,3.32,39.54,21,57.19,15.19,15.19,38.6,16.4,53.79,1.21h0c15.19-15.19,14-38.6-1.21-53.79C415.93,224.6,397.38,228.34,376.38,221.28Z"/><path class="cls-3" d="M376.38,221.28a106.86,106.86,0,0,1-26.14-9.79S419.6,311.24,434.79,296h0c15.19-15.19,14-38.6-1.21-53.79C415.93,224.6,397.38,228.34,376.38,221.28Z"/><path class="cls-4" d="M431.8,290.06h0c11.89-11.89,10.94-30.21-.95-42.1C417,234.14,419.91,301.94,431.8,290.06Z"/></svg>