<?xml version="1.0" encoding="UTF-8"?>
<!DOCTYPE svg PUBLIC "-//W3C//DTD SVG 1.1//EN" "http://www.w3.org/Graphics/SVG/1.1/DTD/svg11.dtd">
<!-- Creator: CorelDRAW -->
<svg xmlns="http://www.w3.org/2000/svg" xml:space="preserve" width="6.82666in" height="6.82666in" style="shape-rendering:geometricPrecision; text-rendering:geometricPrecision; image-rendering:optimizeQuality; fill-rule:evenodd; clip-rule:evenodd"
viewBox="0 0 6.82666 6.82666"
 xmlns:xlink="http://www.w3.org/1999/xlink">
 <defs>
  <style type="text/css">
   <![CDATA[
    .fil2 {fill:none}
    .fil1 {fill:#388E3C}
    .fil3 {fill:#40C4FF}
    .fil0 {fill:#43A047}
    .fil4 {fill:#80D8FF}
   ]]>
  </style>
   <clipPath id="id0">
    <path d="M3.41333 -3.93701e-006c1.88513,0 3.41333,1.5282 3.41333,3.41333 0,1.88513 -1.5282,3.41333 -3.41333,3.41333 -1.88513,0 -3.41333,-1.5282 -3.41333,-3.41333 0,-1.88513 1.5282,-3.41333 3.41333,-3.41333z"/>
   </clipPath>
 </defs>
 <g id="Layer_x0020_1">
  <metadata id="CorelCorpID_0Corel-Layer"/>
  <path class="fil0" d="M3.41333 -3.93701e-006c1.88513,0 3.41333,1.5282 3.41333,3.41333 0,1.88513 -1.5282,3.41333 -3.41333,3.41333 -1.88513,0 -3.41333,-1.5282 -3.41333,-3.41333 0,-1.88513 1.5282,-3.41333 3.41333,-3.41333z"/>
  <g style="clip-path:url(#id0)">
   <g id="_457168520">
    <g>
     <polygon id="_4546155041" class="fil1" points="4.40157,2.56413 8.18783,6.35041 8.22733,6.40476 8.25612,6.45744 8.27502,6.50809 8.28484,6.55639 8.2864,6.60199 8.28051,6.64455 8.26797,6.68372 8.24959,6.71919 8.2262,6.75058 8.1986,6.77757 8.16759,6.79983 8.13401,6.817 8.09864,6.82876 8.06231,6.83474 8.02582,6.83463 7.99,6.82807 7.95564,6.81473 7.92356,6.79427 7.89457,6.76635 4.10831,2.98007 4.13729,3.008 4.16937,3.02846 4.20373,3.0418 4.23956,3.04836 4.27604,3.04847 4.31237,3.04248 4.34774,3.03073 4.38133,3.01356 4.41233,2.9913 4.43993,2.96431 4.46333,2.93291 4.4817,2.89745 4.49424,2.85828 4.50013,2.81572 4.49857,2.77012 4.48875,2.72182 4.46985,2.67117 4.44106,2.61849 "/>
     <polygon id="_454616728" class="fil1" points="3.55045,2.50844 7.33672,6.29471 7.38772,6.35041 7.42722,6.40476 7.45601,6.45744 7.47491,6.50809 7.48473,6.55639 7.48629,6.60199 7.4804,6.64455 7.46786,6.68372 7.44948,6.71919 7.42609,6.75058 7.39849,6.77757 7.36748,6.79983 7.3339,6.817 7.29853,6.82876 7.2622,6.83474 7.22571,6.83463 7.18989,6.82807 7.15553,6.81473 7.12345,6.79427 7.09446,6.76635 3.3082,2.98007 3.33718,3.008 3.36926,3.02846 3.40362,3.0418 3.43944,3.04836 3.47593,3.04847 3.51226,3.04248 3.54763,3.03073 3.58122,3.01356 3.61222,2.9913 3.63982,2.96431 3.66322,2.93291 3.68159,2.89745 3.69413,2.85828 3.70002,2.81572 3.69846,2.77012 3.68864,2.72182 3.66974,2.67117 3.64095,2.61849 3.60146,2.56413 "/>
     <polygon id="_454617520" class="fil1" points="2.6596,2.50844 6.44587,6.29471 6.49687,6.35041 6.53636,6.40476 6.56515,6.45744 6.58406,6.50809 6.59388,6.55639 6.59544,6.60199 6.58954,6.64455 6.577,6.68372 6.55863,6.71919 6.53524,6.75058 6.50763,6.77757 6.47663,6.79983 6.44304,6.817 6.40768,6.82876 6.37135,6.83474 6.33486,6.83463 6.29903,6.82807 6.26467,6.81473 6.23259,6.79427 6.20361,6.76635 2.41734,2.98007 2.44633,3.008 2.47841,3.02846 2.51276,3.0418 2.54859,3.04836 2.58508,3.04847 2.62141,3.04248 2.65678,3.03073 2.69036,3.01356 2.72137,2.9913 2.74897,2.96431 2.77236,2.93291 2.79074,2.89745 2.80328,2.85828 2.80917,2.81572 2.80761,2.77012 2.79779,2.72182 2.77889,2.67117 2.75009,2.61849 2.7106,2.56413 "/>
     <polygon id="_454616800" class="fil1" points="4.75245,3.2288 8.53872,7.01507 8.58972,7.07077 8.62921,7.12513 8.658,7.1778 8.67691,7.22846 8.68673,7.27676 8.68829,7.32235 8.68239,7.36491 8.66985,7.40409 8.65148,7.43955 8.62809,7.47094 8.60048,7.49794 8.56948,7.52019 8.53589,7.53737 8.50053,7.54912 8.4642,7.55511 8.42771,7.55499 8.39188,7.54844 8.35752,7.5351 8.32544,7.51463 8.29646,7.48671 4.51019,3.70044 4.53918,3.72836 4.57126,3.74883 4.60561,3.76217 4.64144,3.76872 4.67793,3.76883 4.71426,3.76285 4.74963,3.75109 4.78321,3.73392 4.81422,3.71167 4.84182,3.68467 4.86521,3.65328 4.88359,3.61782 4.89613,3.57864 4.90202,3.53608 4.90046,3.49048 4.89064,3.44219 4.87174,3.39153 4.84294,3.33885 4.80345,3.2845 "/>
     <polygon id="_454616920" class="fil1" points="1.85949,2.50844 5.64576,6.29471 5.69676,6.35041 5.73625,6.40476 5.76504,6.45744 5.78394,6.50809 5.79377,6.55639 5.79533,6.60199 5.78943,6.64455 5.77689,6.68372 5.75852,6.71919 5.73513,6.75058 5.70752,6.77757 5.67652,6.79983 5.64293,6.817 5.60757,6.82876 5.57124,6.83474 5.53475,6.83463 5.49892,6.82807 5.46456,6.81473 5.43248,6.79427 1.64622,3.008 1.6783,3.02846 1.71265,3.0418 1.74848,3.04836 1.78497,3.04847 1.8213,3.04248 1.85667,3.03073 1.89025,3.01356 1.92126,2.9913 1.94886,2.96431 1.97225,2.93291 1.99063,2.89745 2.00317,2.85828 2.00906,2.81572 2.0075,2.77012 1.99768,2.72182 1.97878,2.67117 1.94998,2.61849 1.91049,2.56413 "/>
     <polygon id="_454617112" class="fil1" points="2.26137,3.2288 6.04764,7.01507 6.09865,7.07077 6.13814,7.12513 6.16693,7.1778 6.18583,7.22846 6.19565,7.27676 6.19721,7.32235 6.19132,7.36491 6.17878,7.40409 6.16041,7.43955 6.13701,7.47094 6.10941,7.49794 6.07841,7.52019 6.04482,7.53737 6.00945,7.54912 5.97312,7.55511 5.93663,7.55499 5.90081,7.54844 5.86645,7.5351 5.83437,7.51463 2.0481,3.72836 2.08018,3.74883 2.11454,3.76217 2.15037,3.76872 2.18685,3.76883 2.22319,3.76285 2.25855,3.75109 2.29214,3.73392 2.32314,3.71167 2.35074,3.68467 2.37414,3.65328 2.39251,3.61782 2.40505,3.57864 2.41094,3.53608 2.40939,3.49048 2.39956,3.44219 2.38066,3.39153 2.35187,3.33885 2.31238,3.2845 "/>
     <polygon id="_454616992" class="fil1" points="3.95234,3.2288 7.73861,7.01507 7.78961,7.07077 7.8291,7.12513 7.85789,7.1778 7.8768,7.22846 7.88662,7.27676 7.88818,7.32235 7.88228,7.36491 7.86974,7.40409 7.85137,7.43955 7.82798,7.47094 7.80037,7.49794 7.76937,7.52019 7.73578,7.53737 7.70042,7.54912 7.66409,7.55511 7.6276,7.55499 7.59177,7.54844 7.55741,7.5351 7.52533,7.51463 7.49635,7.48671 3.71008,3.70044 3.73907,3.72836 3.77115,3.74883 3.8055,3.76217 3.84133,3.76872 3.87782,3.76883 3.91415,3.76285 3.94952,3.75109 3.9831,3.73392 4.01411,3.71167 4.04171,3.68467 4.0651,3.65328 4.08348,3.61782 4.09602,3.57864 4.10191,3.53608 4.10035,3.49048 4.09053,3.44219 4.07163,3.39153 4.04283,3.33885 4.00334,3.2845 "/>
     <polygon id="_454617064" class="fil1" points="5.13007,3.94917 8.91634,7.73544 8.96734,7.79113 9.00683,7.84549 9.03563,7.89817 9.05453,7.94882 9.06435,7.99712 9.06591,8.04272 9.06002,8.08528 9.04748,8.12445 9.0291,8.15991 9.00571,8.19131 8.97811,8.2183 8.9471,8.24056 8.91352,8.25773 8.87815,8.26948 8.84182,8.27547 8.80533,8.27536 8.7695,8.2688 8.73515,8.25546 8.70307,8.235 8.67408,8.20707 4.88781,4.4208 4.9168,4.44873 4.94888,4.46919 4.98324,4.48253 5.01906,4.48909 5.05555,4.4892 5.09188,4.48321 5.12725,4.47146 5.16083,4.45429 5.19184,4.43203 5.21944,4.40504 5.24283,4.37364 5.26121,4.33818 5.27375,4.299 5.27964,4.25644 5.27808,4.21085 5.26826,4.16255 5.24936,4.11189 5.22057,4.05922 5.18107,4.00486 "/>
     <polygon id="_454617160" class="fil1" points="2.639,3.94917 6.42527,7.73544 6.47627,7.79113 6.51576,7.84549 6.54456,7.89817 6.56346,7.94882 6.57328,7.99712 6.57484,8.04272 6.56894,8.08528 6.55641,8.12445 6.53803,8.15991 6.51464,8.19131 6.48704,8.2183 6.45603,8.24056 6.42244,8.25773 6.38707,8.26948 6.35074,8.27547 6.31426,8.27536 6.27843,8.2688 6.24407,8.25546 6.212,8.235 2.42573,4.44873 2.45781,4.46919 2.49217,4.48253 2.52799,4.48909 2.56448,4.4892 2.60081,4.48321 2.63617,4.47146 2.66976,4.45429 2.70077,4.43203 2.72837,4.40504 2.75176,4.37364 2.77014,4.33818 2.78268,4.299 2.78857,4.25644 2.78701,4.21085 2.77719,4.16255 2.75829,4.11189 2.7295,4.05922 2.69,4.00486 "/>
     <polygon id="_454617496" class="fil1" points="3.06148,3.2288 6.84775,7.01507 6.89876,7.07077 6.93825,7.12513 6.96704,7.1778 6.98594,7.22846 6.99576,7.27676 6.99732,7.32235 6.99143,7.36491 6.97889,7.40409 6.96052,7.43955 6.93712,7.47094 6.90952,7.49794 6.87852,7.52019 6.84493,7.53737 6.80956,7.54912 6.77323,7.55511 6.73674,7.55499 6.70092,7.54844 6.66656,7.5351 6.63448,7.51463 2.84821,3.72836 2.88029,3.74883 2.91465,3.76217 2.95048,3.76872 2.98696,3.76883 3.0233,3.76285 3.05866,3.75109 3.09225,3.73392 3.12325,3.71167 3.15085,3.68467 3.17425,3.65328 3.19262,3.61782 3.20516,3.57864 3.21106,3.53608 3.2095,3.49048 3.19967,3.44219 3.18077,3.39153 3.15198,3.33885 3.11249,3.2845 "/>
     <polygon id="_454617400" class="fil1" points="4.32996,3.94917 8.11623,7.73544 8.16723,7.79113 8.20672,7.84549 8.23552,7.89817 8.25442,7.94882 8.26424,7.99712 8.2658,8.04272 8.25991,8.08528 8.24737,8.12445 8.229,8.15991 8.2056,8.19131 8.178,8.2183 8.147,8.24056 8.11341,8.25773 8.07804,8.26948 8.04171,8.27547 8.00522,8.27536 7.9694,8.2688 7.93504,8.25546 7.90296,8.235 7.87397,8.20707 4.0877,4.4208 4.11669,4.44873 4.14877,4.46919 4.18313,4.48253 4.21896,4.48909 4.25544,4.4892 4.29177,4.48321 4.32714,4.47146 4.36073,4.45429 4.39173,4.43203 4.41933,4.40504 4.44273,4.37364 4.4611,4.33818 4.47364,4.299 4.47954,4.25644 4.47798,4.21085 4.46815,4.16255 4.44925,4.11189 4.42046,4.05922 4.38096,4.00486 "/>
     <polygon id="_454617832" class="fil1" points="3.43911,3.94917 7.22538,7.73544 7.27638,7.79113 7.31587,7.84549 7.34467,7.89817 7.36357,7.94882 7.37339,7.99712 7.37495,8.04272 7.36906,8.08528 7.35652,8.12445 7.33814,8.15991 7.31475,8.19131 7.28715,8.2183 7.25614,8.24056 7.22255,8.25773 7.18719,8.26948 7.15085,8.27547 7.11437,8.27536 7.07854,8.2688 7.04419,8.25546 7.01211,8.235 3.22584,4.44873 3.25792,4.46919 3.29228,4.48253 3.3281,4.48909 3.36459,4.4892 3.40092,4.48321 3.43628,4.47146 3.46987,4.45429 3.50088,4.43203 3.52848,4.40504 3.55187,4.37364 3.57025,4.33818 3.58279,4.299 3.58868,4.25644 3.58712,4.21085 3.5773,4.16255 3.5584,4.11189 3.52961,4.05922 3.49011,4.00486 "/>
    </g>
    <path id="_457168088" class="fil1" d="M4.89989 3.77746c1.04156,0.615602 -0.435264,1.23506 0,0zm-0.377622 -0.720366c1.04156,0.615606 -0.435264,1.23506 0,0zm-0.422488 0.720366c1.04156,0.615602 -0.435264,1.23506 0,0zm0.0206024 -1.44073c1.04156,0.615602 -0.435264,1.23506 0,0zm-0.398224 0.720362c1.04156,0.615606 -0.435264,1.23506 0,0zm-0.513228 0.720366c1.04156,0.615602 -0.435268,1.23506 0,0zm-0.377626 -0.720366c1.04156,0.615606 -0.435264,1.23506 0,0zm0.488969 -0.720362c1.04156,0.615602 -0.435264,1.23506 0,0zm-0.911453 1.44073c1.04156,0.615602 -0.435268,1.23506 0,0zm-0.377626 -0.720366c1.04156,0.615606 -0.435264,1.23506 0,0zm0.398224 -0.720362c1.04156,0.615602 -0.435264,1.23506 0,0zm-0.80011 0c1.04156,0.615602 -0.435264,1.23506 0,0z"/>
   </g>
  </g>
  <path class="fil2" d="M3.41333 -3.93701e-006c1.88513,0 3.41333,1.5282 3.41333,3.41333 0,1.88513 -1.5282,3.41333 -3.41333,3.41333 -1.88513,0 -3.41333,-1.5282 -3.41333,-3.41333 0,-1.88513 1.5282,-3.41333 3.41333,-3.41333z"/>
  <path class="fil3" d="M1.6293 2.33673c-0.435264,1.23506 1.04156,0.615602 0,0z"/>
  <path class="fil4" d="M1.57176 2.8144c0.0198189,0.112094 0.0751063,0.175736 0.140791,0.20113 0.076126,-0.0412087 0.111776,-0.173705 -0.111776,-0.305835 -0.0137402,0.0389764 -0.0230906,0.073689 -0.0290157,0.104705z"/>
  <path class="fil3" d="M2.42941 2.33673c-0.435264,1.23506 1.04156,0.615602 0,0z"/>
  <path class="fil4" d="M2.37187 2.8144c0.0198189,0.112094 0.0751063,0.175736 0.140791,0.20113 0.076126,-0.0412087 0.111776,-0.173705 -0.11178,-0.305835 -0.0137362,0.0389764 -0.0230866,0.073689 -0.0290118,0.104705z"/>
  <path class="fil3" d="M3.32027 2.33673c-0.435264,1.23506 1.04156,0.615602 0,0z"/>
  <path class="fil4" d="M3.26272 2.8144c0.0198189,0.112094 0.0751063,0.175736 0.140791,0.20113 0.076126,-0.0412087 0.111772,-0.173705 -0.11178,-0.305835 -0.0137362,0.0389764 -0.0230866,0.073689 -0.0290118,0.104705z"/>
  <path class="fil3" d="M4.12038 2.33673c-0.435264,1.23506 1.04156,0.615602 0,0z"/>
  <path class="fil4" d="M4.06283 2.8144c0.0198189,0.112094 0.0751063,0.175736 0.140791,0.20113 0.076126,-0.0412087 0.111772,-0.173705 -0.11178,-0.305835 -0.0137362,0.0389764 -0.0230866,0.073689 -0.0290118,0.104705z"/>
  <path class="fil3" d="M2.03119 3.05709c-0.435264,1.23506 1.04156,0.615606 0,0z"/>
  <path class="fil4" d="M1.97365 3.53477c0.0198189,0.112091 0.0751063,0.175736 0.140791,0.20113 0.076126,-0.0412087 0.111772,-0.173709 -0.11178,-0.305835 -0.0137362,0.0389764 -0.0230866,0.073689 -0.0290118,0.104705z"/>
  <path class="fil3" d="M2.40881 3.77746c-0.435268,1.23506 1.04156,0.615602 0,0z"/>
  <path class="fil4" d="M2.35127 4.25513c0.0198189,0.112094 0.0751063,0.175736 0.140787,0.20113 0.0761299,-0.0412087 0.111776,-0.173705 -0.111776,-0.305835 -0.0137362,0.0389764 -0.0230866,0.073689 -0.0290118,0.104705z"/>
  <path class="fil3" d="M2.8313 3.05709c-0.435264,1.23506 1.04156,0.615606 0,0z"/>
  <path class="fil4" d="M2.77376 3.53477c0.0198189,0.112091 0.0751063,0.175736 0.140791,0.20113 0.076126,-0.0412087 0.111772,-0.173709 -0.11178,-0.305835 -0.0137362,0.0389764 -0.0230866,0.073689 -0.0290118,0.104705z"/>
  <path class="fil3" d="M3.20893 3.77746c-0.435268,1.23506 1.04156,0.615602 0,0z"/>
  <path class="fil4" d="M3.15138 4.25513c0.0198189,0.112094 0.0751024,0.175736 0.140787,0.20113 0.0761299,-0.0412087 0.111776,-0.173705 -0.111776,-0.305835 -0.0137362,0.0389764 -0.0230906,0.073689 -0.0290118,0.104705z"/>
  <path class="fil3" d="M3.72215 3.05709c-0.435268,1.23506 1.04156,0.615606 0,0z"/>
  <path class="fil4" d="M3.66461 3.53477c0.0198189,0.112091 0.0751063,0.175736 0.140791,0.20113 0.076126,-0.0412087 0.111772,-0.173709 -0.11178,-0.305835 -0.0137362,0.0389764 -0.0230866,0.073689 -0.0290118,0.104705z"/>
  <path class="fil3" d="M4.09978 3.77746c-0.435268,1.23506 1.04156,0.615602 0,0z"/>
  <path class="fil4" d="M4.04224 4.25513c0.019815,0.112094 0.0751024,0.175736 0.140787,0.20113 0.0761299,-0.0412087 0.111776,-0.173705 -0.111776,-0.305835 -0.0137362,0.0389764 -0.0230906,0.073689 -0.0290118,0.104705z"/>
  <path class="fil3" d="M4.52226 3.05709c-0.435268,1.23506 1.04156,0.615606 0,0z"/>
  <path class="fil4" d="M4.46472 3.53477c0.0198189,0.112091 0.0751063,0.175736 0.140787,0.20113 0.0761299,-0.0412087 0.111776,-0.173709 -0.111776,-0.305835 -0.0137362,0.0389764 -0.0230866,0.073689 -0.0290118,0.104705z"/>
  <path class="fil3" d="M4.89989 3.77746c-0.435268,1.23506 1.04156,0.615602 0,0z"/>
  <path class="fil4" d="M4.84235 4.25513c0.019815,0.112094 0.0751024,0.175736 0.140787,0.20113 0.0761299,-0.0412087 0.111776,-0.173705 -0.111776,-0.305835 -0.0137362,0.0389764 -0.0230906,0.073689 -0.0290118,0.104705z"/>
 </g>
</svg>
