<?xml version="1.0" encoding="utf-8"?>
<!-- Generator: Adobe Illustrator 16.0.0, SVG Export Plug-In . SVG Version: 6.00 Build 0)  -->
<!DOCTYPE svg PUBLIC "-//W3C//DTD SVG 1.1//EN" "http://www.w3.org/Graphics/SVG/1.1/DTD/svg11.dtd">
<svg version="1.1" id="Слой_1" xmlns="http://www.w3.org/2000/svg" xmlns:xlink="http://www.w3.org/1999/xlink" x="0px" y="0px"
	 width="512px" height="512px" viewBox="0 0 512 512" enable-background="new 0 0 512 512" xml:space="preserve">
<g id="rainbow">
	<path fill="#5D9CEC" d="M359.45,230.563l-43.326-27.343l-54.007-10c0,0-41.327-4-44.662,0c-3.336,4-74.662,47.998-74.662,47.998
		l-38.671,53.999l-4,37.998l-5.327,82.779h39.326l11.336-95.997l23.335-48.779c0,0,33.327-24.656,35.327-24.656
		S256,235.219,256,235.219l34.124,8.671l51.998,26l23.327,33.999l14,91.996l-2.672,20.109h37.344V313.889L359.45,230.563z"/>
	<path fill="#A0D468" d="M438.12,263.219l-54.124-66.998l-47.873-30.328l-74.334-12.999H222.79l-46.67,14.999l-64.662,41.999
		l-37.663,59.327l-14.999,93.34l-7.336,53.437h37.335l6.664-45.108l1.999-57.326l13.336-26.999l33.327-48.671l24.335-19.999
		l29.663-14.672l47.334-7c0,0,41.327,1.671,44.327,2.343c3,0.656,51.67,17.328,51.67,17.328l49.999,45.717l12.672,34.608
		l8.656,21.671v54.326l1.344,43.78h38.653v-91.779L438.12,263.219z"/>
	<polygon fill="#FC6E51" points="498.774,331.216 472.774,229.891 417.449,164.565 346.122,119.895 262.117,107.224 
		212.791,107.224 160.12,125.895 108.794,157.222 59.46,209.22 28.125,261.609 11.461,343.216 11.461,415.995 51.46,415.995 
		54.796,306.562 68.795,264.563 102.794,214.564 144.793,181.331 200.791,157.222 265.453,152.566 321.452,162.565 392.121,203.22 
		446.774,281.218 460.118,415.995 502.117,415.995 	"/>
	<path fill="#AC92EB" d="M256,224.001c-70.693,0-127.996,57.295-127.996,127.996v63.998h21.336v-63.998
		c0-28.499,11.093-55.279,31.24-75.435c20.141-20.141,46.929-31.234,75.42-31.234c28.499,0,55.28,11.094,75.42,31.234
		c20.14,20.155,31.232,46.936,31.232,75.435v63.998h21.344v-63.998C383.996,281.296,326.686,224.001,256,224.001z"/>
	<path fill="#4FC2E9" d="M256,181.331c-94.255,0-170.658,76.404-170.658,170.667v63.998h21.327v-63.998
		c0-20.172,3.945-39.733,11.727-58.123c7.522-17.78,18.296-33.749,32.015-47.483c13.718-13.718,29.693-24.483,47.475-31.999
		c18.391-7.781,37.944-11.734,58.115-11.734c20.172,0,39.718,3.953,58.124,11.734c17.78,7.516,33.748,18.28,47.466,31.999
		c13.719,13.734,24.5,29.703,32.016,47.483c7.781,18.39,11.734,37.951,11.734,58.123v63.998h21.312v-63.998
		C426.651,257.734,350.247,181.331,256,181.331z"/>
	<path fill="#FFCE54" d="M256,138.66c-117.816,0-213.329,95.512-213.329,213.337v63.998h21.335v-63.998
		c0-25.938,5.07-51.076,15.078-74.732c9.672-22.858,23.515-43.389,41.154-61.029c17.641-17.641,38.18-31.499,61.037-41.155
		c23.656-10.016,48.796-15.078,74.725-15.078c25.937,0,51.062,5.062,74.717,15.078c22.874,9.656,43.404,23.515,61.045,41.155
		c17.641,17.64,31.483,38.17,41.155,61.029c10.015,23.656,15.076,48.795,15.076,74.732v63.998h21.344v-63.998
		C469.337,234.172,373.809,138.66,256,138.66z"/>
	<path fill="#ED5564" d="M256,96.005c-141.378,0-255.992,114.606-255.992,255.992v63.998h21.336v-63.998
		c0-31.702,6.195-62.42,18.429-91.341c11.82-27.937,28.741-53.045,50.296-74.591c21.562-21.563,46.654-38.483,74.599-50.295
		c28.913-12.234,59.646-18.438,91.333-18.438s62.421,6.203,91.341,18.438c27.937,11.812,53.03,28.733,74.592,50.295
		c21.562,21.546,38.467,46.654,50.295,74.591c12.234,28.921,18.422,59.639,18.422,91.341v63.998h21.343v-63.998
		C511.992,210.611,397.371,96.005,256,96.005z"/>
</g>
</svg>
